<svg width="120" height="120" viewBox="0 0 120 120" fill="none" xmlns="http://www.w3.org/2000/svg"><path d="M105.757 58.6903C106.441 58.6903 107 58.131 107 57.4474V25.7766C107 25.3788 106.814 25.0059 106.49 24.7698C106.167 24.5336 105.757 24.4714 105.384 24.5833L101.556 25.7766L98.0755 19.6736C97.8518 19.2758 97.4167 19.0148 96.9568 19.0521C96.8201 19.0521 93.8121 19.1391 89.4493 19.7357V13.2474C89.4493 12.887 89.2877 12.539 89.0143 12.3028C88.7408 12.0666 88.3803 11.9548 88.0199 12.0169C87.0131 12.1661 65.3357 15.4848 59.5186 29.7789C53.7264 15.4848 32.0491 12.1661 31.0298 12.0169C30.6694 11.9672 30.3089 12.0666 30.0355 12.3028C29.762 12.539 29.6004 12.887 29.6004 13.2474V19.7357C25.2127 19.1515 22.2048 19.0645 22.068 19.0521C21.5957 19.0272 21.1855 19.2758 20.9494 19.6736L18.2148 24.4714L13.6531 22.8307C13.2678 22.694 12.8452 22.7561 12.522 22.9799C12.1989 23.2036 12 23.5889 12 23.9991V46.9692C12 47.6528 12.5593 48.2121 13.243 48.2121C13.9266 48.2121 14.4859 47.6528 14.4859 46.9692V25.7766L18.364 27.1687L46.9025 37.3983L50.0472 38.5294V100.404L14.4859 85.8989V64.6193C14.4859 63.9357 13.9266 63.3763 13.243 63.3763C12.5593 63.3763 12 63.9357 12 64.6193V86.7317C12 87.2413 12.3107 87.6888 12.7706 87.8876L50.8179 103.4C50.967 103.462 51.1286 103.487 51.2902 103.487C51.3399 103.487 51.4021 103.474 51.4518 103.462C53.0925 106.259 56.1129 108.049 59.3943 108.049C62.8995 108.049 66.268 106.184 67.8714 103.462C67.9584 103.462 68.0578 103.45 68.1448 103.412L106.18 89.6651C106.677 89.4911 107 89.0187 107 88.4967V76.328C107 75.6444 106.441 75.0851 105.757 75.0851C105.073 75.0851 104.514 75.6444 104.514 76.328V87.6266L68.9652 100.479V38.5667L70.5562 38.0695H70.5935L71.0285 37.9204L101.344 28.4489L104.514 27.4546V57.4349C104.514 58.1186 105.073 58.6779 105.757 58.6779V58.6903ZM86.9634 14.739V20.0962C86.7769 20.1211 86.5905 20.1583 86.3916 20.1956C86.2176 20.2205 86.0436 20.2578 85.8696 20.2826C85.3848 20.3697 84.8876 20.4567 84.3904 20.5561C84.2661 20.581 84.1543 20.6058 84.03 20.6182C83.396 20.7425 82.7497 20.8793 82.1158 21.016C82.0661 21.016 82.0039 21.0409 81.9418 21.0533C81.37 21.1776 80.7982 21.3143 80.2141 21.4635C80.04 21.5008 79.8784 21.5505 79.7044 21.5878C79.2197 21.7121 78.7349 21.8364 78.2502 21.9731C78.0761 22.0228 77.9021 22.0725 77.7281 22.1222C77.1688 22.2838 76.6219 22.4454 76.0625 22.6194C75.9755 22.6443 75.8885 22.6691 75.8015 22.694C75.1552 22.9053 74.5088 23.1166 73.8625 23.3528C73.7631 23.3901 73.6636 23.4274 73.5642 23.4646C73.0421 23.6635 72.5201 23.8624 71.998 24.0737C71.824 24.1483 71.65 24.2104 71.4884 24.285C71.0285 24.4839 70.5686 24.6827 70.1087 24.8941C69.9471 24.9686 69.7856 25.0432 69.624 25.1178C69.0646 25.3788 68.5053 25.6523 67.9584 25.9506C67.9211 25.963 67.8838 25.9879 67.8465 26.0003C67.2623 26.311 66.6781 26.6466 66.1188 26.9822C65.9945 27.0568 65.8826 27.1314 65.7583 27.206C65.3233 27.4794 64.9007 27.7529 64.4905 28.0388C64.3414 28.1506 64.1798 28.2501 64.0306 28.3619C63.6453 28.6478 63.26 28.9337 62.8871 29.232C62.7628 29.3314 62.6261 29.4309 62.5018 29.5427C62.4272 29.6049 62.3526 29.667 62.278 29.7292C67.3369 19.4747 82.2649 15.6961 86.9509 14.7514L86.9634 14.739ZM20.6013 25.3291L22.7517 21.5753C24.0568 21.6499 27.0026 21.8488 30.6694 22.3957C33.2299 22.781 35.7034 23.2658 38.0153 23.8375C38.6741 23.9991 39.3577 23.5889 39.5193 22.9302C39.6809 22.259 39.2707 21.5878 38.6119 21.4262C36.5486 20.9166 34.3486 20.4939 32.0988 20.1211V14.739C36.7972 15.6961 51.7501 19.4747 56.7841 29.7665C54.9818 28.2252 52.8563 26.8331 50.3828 25.5901C49.7738 25.2794 49.0156 25.528 48.7173 26.137C48.4065 26.7461 48.6551 27.4919 49.2642 27.8026C53.2292 29.7913 56.2621 32.1903 58.2632 34.9124V36.3791H51.4891L20.6013 25.3291ZM52.5456 38.8899H66.0318V46.7703H52.6575L52.5456 38.8899ZM52.6948 49.2562H66.0442V56.1795H52.7942L52.6948 49.2562ZM66.0442 100.019C65.9945 100.379 66.0069 100.715 66.0194 101.026C66.0194 101.324 66.0318 101.66 65.9696 101.809C64.938 103.984 62.1786 105.563 59.3943 105.563C56.896 105.563 54.5841 104.146 53.4281 101.946L52.8315 58.6655H66.0442V83.0401C66.0442 83.0401 66.0442 83.0649 66.0442 83.0774V100.031V100.019ZM69.8477 35.683L67.138 36.4039H60.7865V34.9745C60.9356 34.7756 61.0848 34.5892 61.2464 34.3903C61.4577 34.1169 61.669 33.8434 61.9051 33.5824C62.104 33.3587 62.3277 33.1474 62.5391 32.9361C62.7876 32.6875 63.0238 32.4389 63.2848 32.2027C63.5086 31.9914 63.7572 31.805 63.9933 31.6061C64.2668 31.3823 64.5278 31.1462 64.8137 30.9349C65.0623 30.7484 65.3233 30.562 65.5843 30.388C65.8702 30.1767 66.1561 29.9654 66.4668 29.7665C66.7403 29.5925 67.0137 29.4309 67.2872 29.2569C67.5979 29.0704 67.8962 28.8715 68.207 28.6975C68.4929 28.5359 68.7787 28.3868 69.0771 28.2376C69.4002 28.0636 69.7234 27.8896 70.0466 27.728C70.3449 27.5789 70.6432 27.4546 70.9415 27.3178C71.2771 27.1687 71.6127 27.0071 71.9483 26.8579C72.2466 26.7336 72.5574 26.6093 72.8557 26.4851C73.2037 26.3483 73.5393 26.1992 73.8873 26.0624C74.1857 25.9506 74.4964 25.8387 74.7947 25.7393C75.1427 25.615 75.4908 25.4782 75.8512 25.3664C76.1495 25.2669 76.4479 25.1799 76.7337 25.0805C77.0942 24.9686 77.4547 24.8443 77.8151 24.7449C78.0886 24.6579 78.362 24.5833 78.6355 24.5087C79.0084 24.3969 79.3813 24.285 79.7542 24.198C80.0027 24.1358 80.2389 24.0737 80.4751 24.0115C80.8728 23.9121 81.2706 23.8127 81.6559 23.7132C81.8423 23.6635 82.0288 23.6262 82.2152 23.5889C82.6503 23.4895 83.0853 23.3901 83.5079 23.3031C83.5949 23.2782 83.6819 23.2658 83.7689 23.2533C85.4594 22.9053 87.0504 22.6194 88.4425 22.4205C92.1092 21.8736 95.0302 21.6623 96.3353 21.6002L99.1693 26.5721L69.885 35.7203L69.8477 35.683Z" fill="white" fill-opacity="0.2"/><path d="M98.1128 40.5678C98.1128 40.1825 97.9388 39.8221 97.628 39.5859C97.3173 39.3497 96.9195 39.2752 96.5591 39.3622L76.3111 44.6448C75.7642 44.7939 75.3789 45.2787 75.3789 45.8505V55.5083C75.3789 55.8936 75.5529 56.2541 75.8637 56.4903C76.0874 56.6643 76.3484 56.7513 76.6219 56.7513C76.7213 56.7513 76.8332 56.7388 76.9326 56.714L97.1806 51.4314C97.7275 51.2822 98.1128 50.7975 98.1128 50.2257V40.5678ZM95.6268 49.2686L77.8648 53.9049V46.82L95.6268 42.1837V49.2686Z" fill="white" fill-opacity="0.2"/><path d="M98.0629 57.1118C97.8889 56.453 97.2053 56.0552 96.5465 56.2168L76.2986 61.4994C75.6398 61.6734 75.2421 62.3571 75.4036 63.0158C75.5528 63.5752 76.05 63.9481 76.6093 63.9481C76.7088 63.9481 76.8206 63.9356 76.9201 63.9108L97.168 58.6282C97.8268 58.4542 98.2245 57.7705 98.0629 57.1118Z" fill="white" fill-opacity="0.2"/><path d="M92.1713 64.5571L76.2986 68.6961C75.6398 68.8702 75.2421 69.5538 75.4036 70.2126C75.5528 70.7719 76.05 71.1448 76.6093 71.1448C76.7088 71.1448 76.8206 71.1324 76.9201 71.1075L92.7928 66.9684C93.4515 66.7944 93.8493 66.1108 93.6877 65.452C93.5137 64.7932 92.83 64.3955 92.1713 64.5571Z" fill="white" fill-opacity="0.2"/><path d="M59.2825 65.104C58.5989 65.104 58.0396 65.6633 58.0396 66.3469V93.5182C58.0396 94.2018 58.5989 94.7612 59.2825 94.7612C59.9662 94.7612 60.5255 94.2018 60.5255 93.5182V66.3469C60.5255 65.6633 59.9662 65.104 59.2825 65.104Z" fill="white" fill-opacity="0.2"/></svg>