<svg width="100" height="100" viewBox="0 0 100 100" fill="none" xmlns="http://www.w3.org/2000/svg"><g clip-path="url(#clip0_13191_6056)"><line y1="5.75" x2="100" y2="5.75" stroke="#FFDFCF" stroke-width="0.5"/><line y1="15.75" x2="100" y2="15.75" stroke="#FFDFCF" stroke-width="0.5"/><line y1="25.75" x2="100" y2="25.75" stroke="#FFDFCF" stroke-width="0.5"/><line y1="35.75" x2="100" y2="35.75" stroke="#FFDFCF" stroke-width="0.5"/><line y1="45.75" x2="100" y2="45.75" stroke="#FFDFCF" stroke-width="0.5"/><line y1="55.75" x2="100" y2="55.75" stroke="#FFDFCF" stroke-width="0.5"/><line y1="65.75" x2="100" y2="65.75" stroke="#FFDFCF" stroke-width="0.5"/><line y1="75.75" x2="100" y2="75.75" stroke="#FFDFCF" stroke-width="0.5"/><line y1="85.75" x2="100" y2="85.75" stroke="#FFDFCF" stroke-width="0.5"/><line y1="95.75" x2="100" y2="95.75" stroke="#FFDFCF" stroke-width="0.5"/><line x1="4.75" y1="100" x2="4.75" y2="1.09278e-08" stroke="#FFDFCF" stroke-width="0.5"/><line x1="14.75" y1="100" x2="14.75" y2="1.09278e-08" stroke="#FFDFCF" stroke-width="0.5"/><line x1="24.75" y1="100" x2="24.75" y2="1.09278e-08" stroke="#FFDFCF" stroke-width="0.5"/><line x1="34.75" y1="100" x2="34.75" y2="1.09278e-08" stroke="#FFDFCF" stroke-width="0.5"/><line x1="44.75" y1="100" x2="44.75" y2="1.09278e-08" stroke="#FFDFCF" stroke-width="0.5"/><line x1="54.75" y1="100" x2="54.75" y2="1.09278e-08" stroke="#FFDFCF" stroke-width="0.5"/><line x1="64.75" y1="100" x2="64.75" y2="1.09278e-08" stroke="#FFDFCF" stroke-width="0.5"/><line x1="74.75" y1="100" x2="74.75" y2="1.09278e-08" stroke="#FFDFCF" stroke-width="0.5"/><line x1="84.75" y1="100" x2="84.75" y2="1.09278e-08" stroke="#FFDFCF" stroke-width="0.5"/><line x1="94.75" y1="100" x2="94.75" y2="1.09278e-08" stroke="#FFDFCF" stroke-width="0.5"/></g><defs><clipPath id="clip0_13191_6056"><rect width="100" height="100" fill="white"/></clipPath></defs></svg>