<svg width="120" height="120" viewBox="0 0 120 120" fill="none" xmlns="http://www.w3.org/2000/svg"><path d="M88.0452 91.3657H67.2859C66.6286 91.3657 66.0908 91.9006 66.0908 92.5543C66.0908 93.208 66.6286 93.7428 67.2859 93.7428H88.0452C88.7025 93.7428 89.2403 93.208 89.2403 92.5543C89.2403 91.9006 88.7025 91.3657 88.0452 91.3657Z" fill="white" fill-opacity="0.2"/><path d="M100.654 75.4749H105.805C106.259 75.4749 106.665 75.2253 106.868 74.8212C107.072 74.4171 107.036 73.9298 106.761 73.5732C106.725 73.5257 103.283 68.8071 103.283 60.0238C103.283 51.2404 106.725 46.5219 106.761 46.4743C107.036 46.1178 107.084 45.6305 106.88 45.2264C106.677 44.8223 106.259 44.5727 105.805 44.5727H100.666C101.048 44.0616 101.395 43.5386 101.706 43.0157C103.331 40.2701 104.179 37.1324 104.179 33.9352C104.179 24.0465 96.1004 16 86.1451 16C83.7907 16 81.4841 16.4635 79.309 17.3549C77.6478 18.0205 76.1061 18.9357 74.7317 20.0648C73.8831 20.7542 73.1063 21.503 72.4012 22.3231C72.2817 22.2874 72.1622 22.2636 72.0307 22.2636L25.9828 22.1686C25.7557 22.1686 25.5286 22.2399 25.3374 22.3587C25.3255 22.3587 25.3255 22.3706 25.3255 22.3706C25.3016 22.3706 25.2777 22.3825 25.2538 22.3944L12.6453 28.8482C12.2509 29.0502 11.9999 29.4543 11.9999 29.906C11.9999 30.3576 12.2509 30.7499 12.6453 30.9638L25.2179 37.4533C25.3613 37.5246 25.5047 37.5602 25.6482 37.5721C25.6482 37.5721 25.6561 37.5721 25.6721 37.5721C25.6721 37.5721 25.6721 37.584 25.696 37.5721C25.7796 37.6078 25.8633 37.6197 25.9589 37.6197L68.5171 37.7029C68.9234 39.5808 69.6166 41.3755 70.5966 43.0157C70.9073 43.5386 71.2539 44.0616 71.6363 44.5727H25.5525C18.083 44.5727 11.9999 51.5019 11.9999 60.0238C11.9999 65.5386 14.5455 70.376 18.3579 73.0978H13.195C12.7409 73.0978 12.3345 73.3474 12.1314 73.7515C11.9282 74.1556 11.964 74.6429 12.2389 74.9995C12.2748 75.047 15.7167 79.7655 15.7167 88.5489C15.7167 97.3323 12.2748 102.051 12.2389 102.098C11.964 102.455 11.9282 102.942 12.1194 103.346C12.3226 103.75 12.7409 104 13.195 104H93.4473C100.929 104 107 97.0708 107 88.5489C107 83.0459 104.466 78.1966 100.654 75.4749ZM24.5845 34.4462L15.8004 29.906L24.5964 25.4014V34.4462H24.5845ZM63.1868 35.3139L27.154 35.2426L27.1779 24.5457L63.1868 24.617V35.3139ZM68.3019 31.2728C68.1824 32.1405 68.1107 33.0438 68.1107 33.9352V34.0659C68.1107 34.4819 68.1346 34.9098 68.1705 35.3258H65.5771V24.617H70.728C69.4971 26.6375 68.6605 28.8957 68.3019 31.2728ZM70.979 37.7147C70.7758 36.9422 70.6444 36.134 70.5727 35.3258C70.5249 34.9098 70.501 34.4819 70.501 34.054V33.9352C70.501 33.1507 70.5607 32.3663 70.6683 31.6175C70.7161 31.3323 70.7639 31.047 70.8236 30.7617C71.2539 28.7531 72.0666 26.8514 73.2258 25.1756C74.0505 23.9633 75.0663 22.8579 76.2495 21.9071C77.4446 20.9206 78.7712 20.1361 80.2173 19.5538C82.1056 18.7693 84.1014 18.3771 86.1451 18.3771C94.7738 18.3771 101.789 25.3657 101.789 33.9352C101.789 36.7045 101.048 39.4263 99.638 41.8152C99.148 42.6472 98.5504 43.4554 97.8692 44.2399C97.7616 44.3587 97.666 44.4657 97.5585 44.5727C96.698 45.4878 95.7419 46.2842 94.7021 46.9498C92.1804 48.59 89.2165 49.4814 86.1451 49.4814C83.0736 49.4814 80.1217 48.59 77.6 46.9498C76.5722 46.2842 75.6041 45.4878 74.7436 44.5727C74.6361 44.4657 74.5405 44.3587 74.4329 44.2399C73.7397 43.4554 73.1422 42.6472 72.6522 41.8033C71.8993 40.5316 71.3375 39.1529 70.979 37.7147ZM14.3901 60.0238C14.3901 52.8093 19.3977 46.9498 25.5525 46.9498H73.7636C77.0861 50.0875 81.5319 51.8585 86.1451 51.8585C90.7582 51.8585 95.216 50.0875 98.5385 46.9498H103.725C102.901 48.5781 101.837 51.2166 101.287 54.8298H64.382C63.7246 54.8298 63.1868 55.3528 63.1868 56.0184C63.1868 56.6839 63.7246 57.2069 64.382 57.2069H101C100.929 58.0983 100.893 59.0373 100.893 60.0238C100.893 60.8795 100.929 61.6996 100.976 62.4841H47.4471C46.7898 62.4841 46.252 63.007 46.252 63.6726C46.252 64.3382 46.7898 64.8612 47.4471 64.8612H101.227C101.777 68.6645 102.865 71.4219 103.725 73.0978H25.5525C19.3977 73.0978 14.3901 67.2382 14.3901 60.0238ZM93.4473 101.623H15.2865C16.1111 99.9946 17.1628 97.356 17.7126 93.7428H54.6178C55.2751 93.7428 55.813 93.2199 55.813 92.5543C55.813 91.8887 55.2751 91.3657 54.6178 91.3657H17.9994C18.0711 90.4743 18.107 89.5354 18.107 88.5489C18.107 87.6931 18.083 86.873 18.0233 86.0886H71.5527C72.2219 86.0886 72.7478 85.5656 72.7478 84.9001C72.7478 84.2345 72.2219 83.7115 71.5527 83.7115H17.7723C17.2345 79.9082 16.135 77.1507 15.2865 75.4749H93.4473C99.6021 75.4749 104.61 81.3344 104.61 88.5489C104.61 95.7634 99.6021 101.623 93.4473 101.623Z" fill="white" fill-opacity="0.2"/><path d="M30.9664 57.2069H51.7256C52.3829 57.2069 52.9207 56.672 52.9207 56.0183C52.9207 55.3646 52.3829 54.8298 51.7256 54.8298H30.9664C30.2971 54.8298 29.7712 55.3527 29.7712 56.0183C29.7712 56.6839 30.2971 57.2069 30.9664 57.2069Z" fill="white" fill-opacity="0.2"/><path d="M75.389 38.6774H81.3646V44.6202C81.3646 45.2858 81.9024 45.8087 82.5597 45.8087H89.7304C90.3997 45.8087 90.9255 45.2858 90.9255 44.6202V38.6774H96.9011C97.5704 38.6774 98.0962 38.1545 98.0962 37.4889V30.3576C98.0962 29.7039 97.5704 29.1691 96.9011 29.1691H90.9255V23.2263C90.9255 22.5726 90.3997 22.0378 89.7304 22.0378H82.5597C81.9024 22.0378 81.3646 22.5726 81.3646 23.2263V29.1691H75.389C74.7317 29.1691 74.1938 29.7039 74.1938 30.3576V37.4889C74.1938 38.1545 74.7317 38.6774 75.389 38.6774ZM76.5841 31.5462H82.5597C83.2289 31.5462 83.7548 31.0232 83.7548 30.3576V24.4149H88.5353V30.3576C88.5353 31.0232 89.0731 31.5462 89.7304 31.5462H95.706V36.3003H89.7304C89.0731 36.3003 88.5353 36.8352 88.5353 37.4889V43.4316H83.7548V37.4889C83.7548 36.8352 83.2289 36.3003 82.5597 36.3003H76.5841V31.5462Z" fill="white" fill-opacity="0.2"/></svg>