<svg width="78" height="77" viewBox="0 0 78 77" fill="none" xmlns="http://www.w3.org/2000/svg"><g clip-path="url(#clip0_13222_8109)"><path d="M47.9747 25.9238C47.359 25.3703 46.7432 24.8168 46.214 24.2786C45.6135 23.6388 45.0994 23.0143 44.6718 22.405C44.2443 21.7957 43.8319 21.1001 43.5773 20.5214L41.3032 19.7645C40.8508 20.3076 40.3119 20.8354 39.6865 21.348C39.0611 21.8606 38.3493 22.3579 37.6526 22.769C36.8695 23.1648 36.0864 23.5606 35.3032 23.9564C34.5353 24.2659 33.6809 24.5602 32.9282 24.7834C33.142 25.088 33.4271 25.4942 33.6256 25.8852C33.8242 26.2761 34.0228 26.667 34.1196 27.129C34.5825 27.0327 35.0605 26.85 35.5386 26.6674C36.0166 26.4847 36.5099 26.2158 36.9879 26.0331L36.7901 27.155L45.4379 28.6798L45.6662 27.3854C46.4957 28.2435 47.2692 28.9138 48.0579 29.4977C48.19 29.2541 48.4086 29.0257 48.6272 28.7973C48.8458 28.5689 49.0797 28.2542 49.2983 28.0258C49.5169 27.7974 49.7355 27.569 49.9389 27.4269C49.2927 27.046 48.733 26.6804 48.1173 26.1269L47.9747 25.9238ZM38.5133 24.9673C39.21 24.5563 39.8201 24.13 40.4303 23.7037C41.0405 23.2774 41.5642 22.8358 41.9149 22.3638C42.1695 22.9426 42.5106 23.5366 42.9382 24.1459C43.3658 24.7552 43.7933 25.3645 44.3074 25.989L38.4268 24.9521L38.5133 24.9673ZM35.585 27.9213L34.398 34.6526L44.8619 36.4976L46.0488 29.7664L35.585 27.9213ZM42.5767 33.7812L37.388 32.8663L37.7989 30.5362L42.9876 31.4511L42.5767 33.7812Z" fill="#CE3D2D"/><path d="M44.3613 47.4427C43.7304 46.9755 43.2011 46.4373 42.6718 45.899C43.2108 45.3712 43.7497 44.8434 44.2886 44.3155C44.8427 43.7014 45.3103 43.072 45.7932 42.3563L45.0654 41.4271L41.6927 40.8324C41.8096 40.6751 41.9265 40.5177 42.0587 40.2741C42.0891 40.1015 42.2925 39.9594 42.4094 39.802L40.2827 38.7152C40.0337 39.1162 39.6829 39.5882 39.3322 40.0603C38.9815 40.5323 38.6307 41.0043 38.1935 41.4611C37.8428 41.9332 37.4208 42.3037 36.9988 42.6742L37.2575 41.2071L35.3549 40.8716L35.8114 38.2827L33.4765 37.871L33.02 40.4599L30.8581 40.0787L30.4776 42.2362L32.5531 42.6022C32.3601 43.191 31.9942 43.7493 31.5417 44.2924C31.1606 44.9371 30.7081 45.4802 30.2405 46.1096C29.7881 46.6527 29.2491 47.1805 28.8271 47.551C29.1426 47.7846 29.4581 48.0182 29.7584 48.3381C30.0586 48.658 30.3741 48.8916 30.5879 49.1962C31.0099 48.8257 31.3454 48.44 31.6962 47.9679L30.7375 53.4047L33.0724 53.8164L34.3506 46.5674C34.4067 46.7552 34.4779 46.8567 34.5492 46.9583C34.6205 47.0598 34.6917 47.1614 34.7478 47.3492C34.9512 47.2071 35.1545 47.065 35.3579 46.9229C35.5613 46.7808 35.8664 46.5677 36.0698 46.4256C36.2732 46.2835 36.5631 46.1566 36.6648 46.0856C36.5222 45.8825 36.3084 45.5778 36.0947 45.2732C35.8809 44.9686 35.6823 44.5776 35.382 44.2577C35.1835 43.8668 34.9697 43.5621 34.7559 43.2575L36.0531 43.4862C35.9514 43.5573 35.8497 43.6283 35.6463 43.7704C35.6311 43.8567 35.4429 43.9125 35.3412 43.9836C35.5854 44.1156 35.9009 44.3492 36.2012 44.6691C36.5014 44.989 36.8169 45.2226 36.9594 45.4257C37.1628 45.2836 37.4679 45.0704 37.6713 44.9283C37.8899 44.6999 38.195 44.4868 38.5001 44.2736C38.6834 44.7509 38.8668 45.2281 39.1518 45.6343C38.3535 46.1164 37.5704 46.5122 36.7008 46.8928C35.8312 47.2733 34.992 47.4813 34.2545 47.6182C34.4683 47.9228 34.6669 48.3138 34.8654 48.7047C35.064 49.0956 35.1761 49.4713 35.2882 49.847L36.0409 49.6238L35.2344 54.1977L42.8445 55.5395L43.727 50.5342L43.9561 50.7525C44.1899 50.4378 44.5102 50.1384 44.8457 49.7526C45.1812 49.3669 45.588 49.0827 45.9948 48.7985C45.4199 48.5192 44.7889 48.052 44.2292 47.6863L44.3613 47.4427ZM42.2227 42.8835C42.1923 43.0561 41.9737 43.2845 41.7551 43.5129C41.5517 43.655 41.4196 43.8986 41.1145 44.1118C40.8447 43.6193 40.5748 43.1268 40.3915 42.6495L42.2075 42.9698L42.2227 42.8835ZM40.9917 52.8993L38.1379 52.3961L38.4727 50.4975L41.3264 51.0007L40.9917 52.8993ZM38.7514 48.4111C39.4328 48.0864 40.0278 47.7464 40.6227 47.4063C40.8365 47.711 41.1368 48.0309 41.3658 48.2492C41.6813 48.4828 41.895 48.7875 42.2105 49.021L38.6649 48.3959L38.7514 48.4111Z" fill="#CE3D2D"/><path d="M12.5121 49.035C11.6674 48.2631 11.0108 47.4355 10.456 46.5368C11.8437 44.7349 12.6212 43.3594 12.6212 43.3594C12.8855 42.8721 12.8191 42.2375 12.4475 41.816C12.4475 41.816 11.3177 40.638 9.49612 39.338C9.78041 38.2314 10.2377 37.1553 10.9544 36.1249C10.486 35.2414 10.104 34.3733 9.82381 33.434C8.33439 35.307 7.33341 37.444 6.95299 39.6015C6.86169 40.1192 7.04504 40.5965 7.447 40.8453C8.55118 41.6629 9.49762 42.3637 10.0269 42.9019C9.64571 43.5465 8.94424 44.4906 8.12586 45.5921C7.79034 45.9778 7.78552 46.5109 7.89761 46.8866C8.89045 48.8413 10.4478 50.6286 12.3559 51.9438C12.3503 50.964 12.4312 49.9995 12.7003 48.9792L12.5121 49.035ZM65.1428 19.0742C64.9594 18.597 64.471 18.3329 64.0234 18.3429C62.6806 18.3731 61.4547 18.2459 60.7476 18.2102C60.6964 17.4893 60.65 16.2354 60.7053 14.9104C60.7814 14.4789 60.4251 13.9712 60.0231 13.7224C58.1406 12.7676 56.0091 12.2137 53.6998 12.1625C54.2699 12.9749 54.7383 13.8583 55.105 14.8128C56.1427 14.9957 57.1805 15.1787 58.0861 15.6054C58.0516 17.8238 58.2253 19.3671 58.2101 19.4534C58.2917 20.0017 58.7497 20.4384 59.2686 20.5299C59.2686 20.5299 60.8252 20.8044 63.1497 20.7693C63.5164 21.7238 63.7102 22.6478 63.8022 23.6428C64.7078 24.0695 65.5982 24.5824 66.3869 25.1664C66.4214 22.9479 65.9931 20.8258 65.0868 18.8863L65.1428 19.0742ZM68.9751 43.864C68.3905 44.6507 67.7347 45.3359 66.9924 46.0059C67.227 47.204 67.3751 48.3869 67.2637 49.524C65.1073 50.1226 63.7292 50.8584 63.6428 50.8431C63.1495 51.1121 62.7988 51.5841 62.9517 52.234C62.9517 52.234 63.2119 53.7925 63.8996 55.9604C63.0709 56.6151 62.0843 57.153 61.0266 57.5894C60.844 58.6249 60.6766 59.5742 60.3362 60.493C62.5943 59.8234 64.6538 58.7628 66.2553 57.2656C66.5909 56.8798 66.7686 56.3773 66.5701 55.9864C66.0913 54.6562 65.8415 53.5444 65.7038 52.8082C66.3852 52.4835 67.5143 52.1487 68.8315 51.758C69.2943 51.6617 69.645 51.1896 69.7211 50.7582C70.1015 48.6007 69.8918 46.2502 69.1328 43.9808L68.9751 43.864ZM41.0616 67.1493C39.9734 67.7583 38.9004 68.2809 37.7001 68.5142C36.4174 66.6863 35.3741 65.5236 35.2876 65.5083C34.9161 65.0869 34.3107 64.9801 33.8175 65.2491C33.8175 65.2491 32.3529 65.9697 30.5224 67.2486C29.5607 66.6341 28.6447 65.7607 27.9169 64.8315C26.9048 65.009 25.9231 65.0139 24.9414 65.0187C26.2801 67.0344 28.0256 68.7659 29.9794 69.8223C30.0659 69.8375 30.2388 69.868 30.4118 69.8985C30.7577 69.9595 31.134 69.8479 31.3527 69.6195C32.4713 68.838 33.473 68.2138 34.0832 67.7874C34.5973 68.412 35.2386 69.3259 36.0225 70.4429C36.3075 70.8491 36.8112 71.0269 37.2588 71.0168C39.5425 70.7077 41.775 69.6776 43.6359 68.2261C42.7151 67.8858 41.8095 67.4591 40.9039 67.0325L41.0616 67.1493ZM28.4585 8.15667C27.9956 8.25302 27.5889 8.53722 27.4111 9.03977C26.9947 10.39 26.5374 11.4662 26.2427 12.1261C25.4644 11.9888 24.3706 11.618 23.1191 11.1304C22.6867 11.0541 22.1526 11.049 21.8171 11.4347C20.3021 12.9472 19.1738 14.7948 18.4474 16.8913C19.3883 16.6123 20.4004 16.4348 21.3974 16.3437C21.8242 15.4401 22.4239 14.5671 22.9933 13.8666C25.0944 14.593 26.6358 14.9538 26.7223 14.9691C27.2411 15.0606 27.8209 14.8069 28.0851 14.3196C28.0851 14.3196 28.7914 12.8424 29.5178 10.746C30.5147 10.6548 31.5676 10.7515 32.5901 11.0208C33.2612 10.2493 33.9883 9.66561 34.817 9.01091C32.716 8.28451 30.5388 7.98959 28.428 8.32927L28.4585 8.15667Z" fill="#CE3D2D"/><path d="M71.3534 36.4527C70.2492 35.6351 69.3027 34.9344 68.7735 34.3961C69.1546 33.7515 69.8561 32.8074 70.6745 31.706C71.01 31.3202 71.0148 30.7872 70.8163 30.3962C69.8234 28.4415 68.3373 26.7558 66.358 25.339C65.5693 24.755 64.6789 24.2421 63.7733 23.8154C61.6466 22.7286 59.1691 22.1138 56.6156 21.9305C56.5228 19.4226 55.9672 17.0111 55.0912 14.8991C54.7245 13.9446 54.2409 13.1475 53.686 12.2488C52.3473 10.2331 50.6018 8.50161 48.648 7.44526C48.246 7.19642 47.6967 7.27753 47.29 7.56173C46.1713 8.34328 45.1696 8.96748 44.5594 9.39378C44.0454 8.76925 43.3175 7.84008 42.6201 6.73831C42.3351 6.33212 41.8314 6.15433 41.3838 6.16439C39.1001 6.47356 36.9541 7.51888 35.0067 8.95513C34.1931 9.52353 33.4508 10.1935 32.7798 10.965C31.1479 12.6348 29.801 14.7108 28.856 17.0357C26.3938 16.3346 23.8403 16.1513 21.4853 16.3589C20.4884 16.4501 19.4763 16.6276 18.5354 16.9066C16.2773 17.5762 14.2178 18.6367 12.6163 20.134C12.2808 20.5197 12.103 21.0223 12.388 21.4285C12.7803 22.7434 13.1166 23.8705 13.2543 24.6066C12.4864 24.9161 11.4438 25.2662 10.1266 25.6568C9.6638 25.7531 9.31307 26.2252 9.23698 26.6567C8.85656 28.8141 9.15276 31.1799 9.82529 33.434C10.1055 34.3733 10.4874 35.2415 10.9558 36.1249C12.0912 38.2827 13.7046 40.2578 15.6535 41.8472C14.1897 44.0806 13.1279 46.5628 12.7018 48.9792C12.5192 50.0148 12.3518 50.964 12.3574 51.9438C12.3229 54.1623 12.7512 56.2844 13.6576 58.2238C13.8409 58.7011 14.3294 58.9652 14.777 58.9551C16.1198 58.9249 17.3457 59.0521 18.0527 59.0878C18.104 59.8087 18.1504 61.0626 18.0951 62.3876C18.019 62.8191 18.3753 63.3268 18.7773 63.5757C19.9119 64.2206 21.2651 64.6372 22.6487 64.8812C24.0324 65.1252 24.2918 65.1709 25.1006 65.1355C26.0823 65.1307 27.0792 65.0395 28.0761 64.9484C30.548 64.5834 33.0399 63.5991 35.3332 62.2238C37.0179 64.3005 39.0229 66.0777 41.2208 67.2661C42.1112 67.7791 43.032 68.1194 43.9529 68.4597C44.716 68.6833 45.5655 68.922 46.3438 69.0593C47.7275 69.3033 49.0551 69.3594 50.4284 69.1566C50.8912 69.0603 51.298 68.7761 51.4757 68.2735C51.8922 66.9232 52.3494 65.8471 52.6441 65.1872C53.4224 65.3244 54.5162 65.6953 55.7677 66.1829C56.2001 66.2591 56.7342 66.2643 57.0697 65.8786C58.5848 64.3661 59.7131 62.5184 60.4394 60.422C60.7797 59.5032 61.0336 58.5692 61.1297 57.5183C61.571 55.0157 61.4222 52.32 60.7953 49.8069C63.1855 48.8936 65.3771 47.5894 67.1668 46.0364C67.9091 45.3664 68.5649 44.6812 69.1495 43.8945C70.6389 42.0216 71.6399 39.8845 72.0203 37.7271C72.1116 37.2093 71.9283 36.732 71.5263 36.4832L71.3534 36.4527ZM67.7595 41.1579C67.2614 41.9599 66.6921 42.6604 66.0363 43.3456C64.1705 45.3301 61.5721 46.9185 58.663 47.7403C58.3731 47.8671 58.068 48.0803 57.9359 48.3239C57.8038 48.5676 57.8142 49.0143 57.855 49.2885C58.8382 52.3092 58.8958 55.5227 58.2359 58.2538C58.0685 59.2031 57.6417 60.1066 57.23 60.9239C56.8032 61.8274 56.2035 62.7004 55.6341 63.4009C53.533 62.6745 51.9916 62.3137 51.9051 62.2985C51.2998 62.1917 50.8065 62.4607 50.5423 62.948C50.5423 62.948 49.836 64.4251 49.1096 66.5216C48.1127 66.6127 47.0598 66.5161 46.0373 66.2468C45.1725 66.0943 44.2516 65.754 43.346 65.3273C40.7869 64.1642 38.38 62.1382 36.5272 59.4979C36.3134 59.1933 36.0692 59.0613 35.7233 59.0003C35.3774 58.9393 35.001 59.0509 34.7976 59.193C32.24 61.0555 29.2853 62.1362 26.3963 62.3386C25.3993 62.4298 24.5193 62.3636 23.5529 62.2822C22.5151 62.0992 21.4774 61.9162 20.5718 61.4896C20.6063 59.2711 20.4326 57.7278 20.4478 57.6415C20.3661 57.0932 19.9081 56.6565 19.3892 56.565C19.3892 56.565 17.7462 56.2753 15.5081 56.3256C15.1414 55.3711 14.9477 54.4471 14.8556 53.4521C14.7483 52.5434 14.7428 51.5636 14.9102 50.6143C15.2394 47.736 16.3773 44.8222 18.3344 42.3199C18.553 42.0915 18.6138 41.7463 18.5017 41.3706C18.3897 40.9949 18.2624 40.7055 18.0181 40.5735C15.5656 38.8063 13.6671 36.425 12.5926 33.922C12.2107 33.0538 11.9152 32.2009 11.7215 31.2769C11.4869 30.0788 11.4253 28.9112 11.4502 27.7588C13.6066 27.1602 14.9846 26.4244 15.0711 26.4396C15.5644 26.1707 15.9151 25.6986 15.7622 25.0488C15.7622 25.0488 15.502 23.4902 14.8143 21.3224C15.643 20.6677 16.6296 20.1298 17.6009 19.6782C18.4705 19.2976 19.3961 19.1049 20.3218 18.9122C23.0835 18.4204 26.1711 18.6089 29.0201 19.6451C29.366 19.7061 29.7119 19.7671 30.017 19.554C30.3069 19.4271 30.5407 19.1124 30.6728 18.8688C31.6226 16.0108 33.2185 13.5338 35.2268 11.7524C35.9691 11.0824 36.681 10.5851 37.4793 10.103C38.5675 9.49402 39.6405 8.97136 40.7544 8.72285C42.0371 10.5507 43.0804 11.7135 43.1669 11.7287C43.5384 12.1501 44.1437 12.2569 44.637 11.9879C44.637 11.9879 46.1016 11.2674 47.9321 9.98847C48.8937 10.6029 49.8097 11.4763 50.624 12.4207C51.2094 13.1468 51.693 13.9439 52.1766 14.7411C53.4545 17.102 54.107 19.9755 54.022 22.9858C53.9611 23.331 54.1749 23.6357 54.4039 23.854C54.6329 24.0724 54.9636 24.2197 55.3095 24.2807C58.4276 24.2966 61.307 25.1602 63.7339 26.5669C64.5379 27.0646 65.3265 27.6486 66.0288 28.2173C66.8735 28.9892 67.5301 29.8168 68.1714 30.7307C66.7837 32.5326 66.0062 33.9082 66.0062 33.9082C65.7419 34.3955 65.8084 35.0301 66.1799 35.4515C66.1799 35.4515 67.3097 36.6295 69.1313 37.9295C68.847 39.0361 68.3897 40.1123 67.673 41.1427L67.7595 41.1579Z" fill="#CE3D2D"/><path d="M15.5657 41.832C14.1019 44.0654 13.04 46.5476 12.614 48.9639C11.7692 48.1921 11.1127 47.3645 10.5578 46.4658C11.9455 44.6639 12.7231 43.2883 12.7231 43.2883C12.9873 42.8011 12.9209 42.1665 12.5494 41.745C12.5494 41.745 11.4196 40.567 9.59795 39.267C9.88225 38.1604 10.3395 37.0842 11.0562 36.0539C12.1916 38.2116 13.805 40.1868 15.7539 41.7762L15.5657 41.832Z" fill="white"/><path d="M41.0615 67.1493C39.9733 67.7582 38.9003 68.2809 37.7 68.5141C36.4173 66.6863 35.374 65.5235 35.2875 65.5083C34.916 65.0868 34.3106 64.9801 33.8174 65.2491C33.8174 65.2491 32.3528 65.9696 30.5223 67.2485C29.5606 66.634 28.6446 65.7607 27.9168 64.8315C30.3887 64.4665 32.8806 63.4822 35.1739 62.1069C36.8586 64.1836 38.8636 65.9609 41.0615 67.1493Z" fill="white"/><path d="M62.7977 52.1173C62.7977 52.1173 63.0578 53.6759 63.7456 55.8438C62.9168 56.4985 61.9303 57.0364 60.8725 57.4727C61.3138 54.9701 61.165 52.2744 60.5381 49.7613C62.9283 48.8481 65.1199 47.5438 66.9096 45.9908C67.1442 47.1889 67.2923 48.3718 67.1809 49.5089C65.0246 50.1075 63.6465 50.8433 63.56 50.8281C63.0667 51.097 62.716 51.5691 62.8689 52.2189L62.7977 52.1173Z" fill="white"/><path d="M63.7875 23.7291C61.6608 22.6423 59.1834 22.0275 56.6298 21.8441C56.537 19.3363 55.9814 16.9248 55.1055 14.8127C56.1432 14.9957 57.181 15.1787 58.0866 15.6053C58.0521 17.8238 58.2258 19.3671 58.2105 19.4534C58.2922 20.0017 58.7502 20.4384 59.2691 20.5299C59.2691 20.5299 60.8257 20.8044 63.1502 20.7693C63.5169 21.7238 63.7107 22.6478 63.8027 23.6428L63.7875 23.7291Z" fill="white"/><path d="M66.2509 35.553C65.8794 35.1315 65.7112 34.568 66.0772 34.0097C66.0772 34.0097 66.8547 32.6341 68.2425 30.8322C67.6876 29.9335 66.9445 29.0906 66.0998 28.3188C65.4128 27.6638 64.6089 27.1661 63.805 26.6684C61.378 25.2617 58.4121 24.3828 55.3805 24.3821C55.0346 24.3211 54.6887 24.2602 54.4749 23.9555C54.2459 23.7372 54.1338 23.3615 54.093 23.0873C54.178 20.0769 53.5255 17.2034 52.2476 14.8426C51.7792 13.9591 51.2804 13.2483 50.6951 12.5222C49.8808 11.5778 49.0512 10.7197 48.0031 10.09C46.1726 11.3689 44.7945 12.1047 44.708 12.0894C44.2148 12.3584 43.6094 12.2516 43.2379 11.8302C43.2379 11.8302 42.1081 10.6522 40.8254 8.82433C39.7116 9.07284 38.5521 9.58025 37.5503 10.2045C36.752 10.6866 36.0249 11.2702 35.2978 11.8539C33.2895 13.6353 31.6936 16.1123 30.7438 18.9702C30.683 19.3154 30.3779 19.5286 30.088 19.6554C29.7981 19.7823 29.437 19.8076 29.0911 19.7466C26.1557 18.6951 23.1545 18.5219 20.3928 19.0137C19.4671 19.2064 18.5263 19.4854 17.6719 19.7797C16.6141 20.216 15.7141 20.7692 14.8853 21.4239C15.573 23.5917 15.8332 25.1503 15.8332 25.1503C15.9149 25.6986 15.6354 26.2722 15.1421 26.5411C15.1421 26.5411 13.6776 27.2617 11.5212 27.8603C11.4099 28.9974 11.4715 30.165 11.7925 31.3784C11.9863 32.3024 12.2817 33.1553 12.6636 34.0235C13.8246 36.5417 15.6366 38.9078 18.0892 40.675C18.3182 40.8933 18.5319 41.198 18.5728 41.4721C18.6136 41.7462 18.451 42.1625 18.4054 42.4214C16.4483 44.9237 15.2952 47.9237 14.9812 50.7158C14.8138 51.6651 14.8194 52.6449 14.9266 53.5536C15.0187 54.5486 15.2837 55.5741 15.5791 56.4271C17.802 56.4631 19.3738 56.6513 19.4603 56.6665C20.0656 56.7733 20.4372 57.1947 20.5188 57.743C20.5188 57.743 20.6773 59.3726 20.6428 61.5911C21.5484 62.0177 22.5709 62.287 23.6239 62.3837C24.4887 62.5361 25.4704 62.5313 26.4673 62.4401C29.2698 62.2224 32.2246 61.1417 34.8687 59.2944C35.1737 59.0813 35.4484 59.0407 35.7943 59.1017C36.1402 59.1627 36.4557 59.3963 36.5982 59.5994C38.3645 62.2244 40.7715 64.2505 43.4171 65.4288C44.3227 65.8554 45.1722 66.0942 46.1083 66.3483C47.146 66.5312 48.1838 66.7142 49.1807 66.6231C49.907 64.5266 50.5981 63.1358 50.6133 63.0495C50.8776 62.5622 51.4573 62.3085 51.9762 62.3999C51.9762 62.3999 53.5328 62.6744 55.7051 63.5024C56.3762 62.7309 56.8743 61.9289 57.3011 61.0253C57.7127 60.2081 58.053 59.2893 58.3069 58.3553C58.982 55.5379 58.9092 52.4107 57.926 49.3899C57.7987 49.1006 57.8596 48.7554 58.0069 48.4254C58.1543 48.0955 58.4594 47.8823 58.734 47.8418C61.6431 47.02 64.2415 45.4316 66.1073 43.447C66.7631 42.7618 67.3325 42.0614 67.8306 41.2594C68.4608 40.2138 69.0045 39.1529 69.2888 38.0462C67.4672 36.7462 66.4239 35.5835 66.3374 35.5682L66.2509 35.553ZM35.2174 23.9412C36.0717 23.6469 36.8549 23.2511 37.5667 22.7538C38.3651 22.2717 38.9753 21.8454 39.6006 21.3328C40.226 20.8202 40.7649 20.2923 41.2174 19.7492L43.4914 20.5061C43.746 21.0849 44.1584 21.7805 44.586 22.3898C45.1 23.0143 45.5276 23.6236 46.1281 24.2634C46.7286 24.9032 47.2579 25.4414 47.8889 25.9086C48.5046 26.462 49.1508 26.8429 49.7105 27.2086C49.5071 27.3507 49.2885 27.5791 49.0699 27.8075C48.8513 28.0359 48.6174 28.3506 48.3988 28.579C48.1802 28.8074 47.9616 29.0358 47.8295 29.2794C47.0408 28.6954 46.2673 28.0252 45.4378 27.167L45.2095 28.4615L36.5617 26.9367L36.7595 25.8148C36.2662 26.0837 35.7882 26.2664 35.3102 26.449C34.8321 26.6317 34.3541 26.8143 33.8912 26.9107C33.7792 26.535 33.5806 26.1441 33.3972 25.6668C33.1987 25.2759 33.0001 24.885 32.6998 24.5651C33.539 24.3571 34.2917 24.1339 35.0748 23.7381L35.2174 23.9412ZM46.0494 29.7664L44.8625 36.4977L34.3986 34.6526L35.5856 27.9213L46.0494 29.7664ZM45.0623 49.5242C44.7268 49.91 44.4065 50.2094 44.1726 50.5241L43.9436 50.3058L43.0611 55.3111L35.451 53.9692L36.2575 49.3954L35.5048 49.6186C35.3775 49.3292 35.2654 48.9535 35.082 48.4763C34.8834 48.0854 34.6849 47.6944 34.4711 47.3898C35.295 47.2681 36.1342 47.0602 36.9173 46.6643C37.787 46.2838 38.5701 45.888 39.3684 45.4059C39.0834 44.9997 38.9 44.5225 38.7167 44.0452C38.4981 44.2736 38.193 44.4868 37.8879 44.6999C37.6693 44.9283 37.3794 45.0552 37.176 45.1973C36.947 44.9789 36.7332 44.6743 36.4178 44.4407C36.1175 44.1208 35.802 43.8872 35.5578 43.7552C35.6443 43.7704 35.7612 43.6131 35.8629 43.542C35.9646 43.471 36.0663 43.3999 36.2697 43.2578L34.9725 43.0291C35.1711 43.42 35.3848 43.7247 35.5834 44.1156C35.7972 44.4203 36.0822 44.8264 36.296 45.1311C36.5098 45.4357 36.7236 45.7404 36.8661 45.9435C36.678 45.9993 36.4746 46.1414 36.2712 46.2835C36.0678 46.4256 35.7627 46.6387 35.5593 46.7808C35.3559 46.9229 35.1525 47.065 34.9491 47.2071C34.9643 47.1208 34.8066 47.004 34.7506 46.8162C34.7658 46.7299 34.6233 46.5268 34.552 46.4252L33.2738 53.6743L30.9389 53.2626L31.8975 47.8258C31.5468 48.2978 31.1096 48.7546 30.7893 49.0541C30.5603 48.8358 30.3465 48.5311 29.9597 48.196C29.6595 47.8761 29.344 47.6425 29.0285 47.4089C29.4505 47.0384 29.9894 46.5106 30.4419 45.9675C30.8943 45.4244 31.3619 44.795 31.7431 44.1503C32.2108 43.5209 32.4902 42.9473 32.7545 42.46L30.679 42.0941L31.0594 39.9366L33.2214 40.3178L33.6779 37.7289L36.0128 38.1406L35.5563 40.7295L37.4588 41.065L37.2001 42.5321C37.6221 42.1616 37.9577 41.7758 38.3949 41.319C38.8321 40.8622 39.1828 40.3902 39.5336 39.9181C39.8843 39.4461 40.1486 38.9588 40.4841 38.573L42.6108 39.6599C42.5803 39.8325 42.377 39.9746 42.26 40.1319C42.2296 40.3045 42.0262 40.4466 41.8941 40.6903L45.2668 41.285L45.9946 42.2141C45.5117 42.9298 45.0441 43.5592 44.4899 44.1734C43.9358 44.7875 43.4834 45.3306 42.8732 45.7569C43.4025 46.2952 43.9317 46.8334 44.5627 47.3006C45.1937 47.7678 45.7534 48.1334 46.3283 48.4127C45.9215 48.6969 45.6012 48.9964 45.1792 49.3669L45.0623 49.5242Z" fill="white"/><path d="M41.3264 51.0007L38.4727 50.4975L38.1379 52.3961L40.9917 52.8993L41.3264 51.0007Z" fill="white"/><path d="M42.2939 49.0361L38.7483 48.4109C39.4297 48.0862 40.0247 47.7462 40.6197 47.4062C40.8334 47.7108 41.1337 48.0307 41.3627 48.2491C41.6782 48.4826 41.892 48.7873 42.2074 49.0209L42.2939 49.0361Z" fill="white"/><path d="M42.2223 42.8834C42.1919 43.056 41.9733 43.2844 41.7546 43.5128C41.5513 43.6549 41.4191 43.8985 41.114 44.1117C40.8442 43.6192 40.5744 43.1267 40.391 42.6495L42.2071 42.9697L42.2223 42.8834Z" fill="white"/><path d="M42.9895 31.451L37.8008 30.5361L37.3899 32.8661L42.5786 33.781L42.9895 31.451Z" fill="white"/><path d="M44.3952 26.0045L38.5147 24.9677C39.2113 24.5566 39.8215 24.1303 40.4317 23.704C41.0419 23.2777 41.5656 22.8361 41.9163 22.3641C42.1709 22.9429 42.512 23.5369 42.9396 24.1462C43.3671 24.7555 43.7947 25.3648 44.3088 25.9893L44.3952 26.0045Z" fill="white"/><path d="M32.7073 10.8634C31.0753 12.5332 29.7284 14.6092 28.7835 16.9341C26.3213 16.233 23.7677 16.0497 21.4128 16.2573C21.8396 15.3538 22.4394 14.4807 23.0087 13.7803C25.1098 14.5067 26.6512 14.8675 26.7377 14.8827C27.2566 14.9742 27.8363 14.7205 28.1006 14.2332C28.1006 14.2332 28.8069 12.7561 29.5332 10.6596C30.5301 10.5685 31.5831 10.6651 32.6056 10.9344L32.7073 10.8634Z" fill="white"/></g><defs><clipPath id="clip0_13222_8109"><rect width="66" height="65" fill="white" transform="translate(12.1445 0.763367) rotate(10)"/></clipPath></defs></svg>