<svg width="120" height="120" viewBox="0 0 120 120" fill="none" xmlns="http://www.w3.org/2000/svg"><path d="M60.4366 96.6991C60.4366 96.6991 60.4775 96.6991 60.4911 96.6854C60.5184 96.6854 60.5457 96.6718 60.5593 96.6445C60.5184 96.6718 60.4775 96.6854 60.4366 96.6991ZM58.5815 31.3371L58.6361 92.5935L58.6907 31.4735C58.6907 31.4735 58.6225 31.378 58.5815 31.3371Z" fill="white" fill-opacity="0.2"/><path d="M60.4363 96.6991C60.4363 96.6991 60.4772 96.6991 60.4908 96.6854C60.5181 96.6854 60.5454 96.6718 60.559 96.6445C60.5181 96.6718 60.4772 96.6855 60.4363 96.6991Z" fill="white" fill-opacity="0.2"/><path d="M61.3096 31.4735L61.3641 92.5935L61.4187 31.3371C61.4187 31.3371 61.3368 31.4326 61.3096 31.4735Z" fill="white" fill-opacity="0.2"/><path d="M112.636 48.9734C113.386 48.9734 114 48.3596 114 47.6094V30.3141C114 29.564 113.386 28.9502 112.636 28.9502H105.339V23.0987C105.339 22.7304 105.189 22.3758 104.93 22.1166C104.67 21.8575 104.316 21.7211 103.934 21.7347C103.838 21.7347 101.765 21.8029 98.5188 22.0893C98.5461 17.9565 98.5734 15.3786 98.5734 15.3786C98.587 14.9966 98.437 14.642 98.1642 14.3828C97.905 14.1237 97.5367 13.9873 97.1685 14.0009C96.0773 14.0419 71.1983 14.9966 60 28.7183C48.8017 14.9966 23.9227 14.0419 22.8315 14.0009C22.4632 13.9873 22.095 14.1237 21.8358 14.3828C21.563 14.642 21.413 15.0103 21.4266 15.3786C21.4266 15.3786 21.4539 17.9565 21.4675 22.0893C18.2213 21.8029 16.1617 21.7347 16.0662 21.7347C15.7115 21.7211 15.3433 21.8575 15.0705 22.1166C14.8113 22.3758 14.6613 22.7304 14.6613 23.0987V28.9502H7.36398C6.61379 28.9502 6 29.564 6 30.3141V99.0861C6 99.8499 6.61379 100.45 7.36398 100.45H52.4299C53.712 103.437 56.6855 105.442 60 105.442C63.3145 105.442 66.2879 103.437 67.5701 100.45H112.636C113.386 100.45 114 99.8499 114 99.0861V73.8524C114 73.0886 113.386 72.4884 112.636 72.4884C111.886 72.4884 111.272 73.0886 111.272 73.8524V97.7221H66.6017C65.9879 97.7221 65.4559 98.1313 65.2922 98.7178C64.6239 101.077 62.4552 102.714 60 102.714C57.5448 102.714 55.3761 101.077 54.7078 98.7178C54.5441 98.1313 54.0121 97.7221 53.3983 97.7221H8.72796V31.6781H14.6613V50.5147C14.6613 51.2649 15.2614 51.8787 16.0253 51.8787C16.7891 51.8787 17.3892 51.2649 17.3892 50.5147V24.5309C18.344 24.5854 19.7626 24.6673 21.4812 24.8309C21.4948 26.1676 21.5085 27.518 21.5085 28.8956C21.6312 48.7824 21.6858 71.6291 21.4266 78.3399C21.413 78.7082 21.5494 79.0765 21.8085 79.3356C22.0541 79.6084 22.4223 79.7584 22.7906 79.7584C23.1316 79.7584 23.4726 79.7721 23.8136 79.7857C24.0864 79.7857 24.3455 79.813 24.6183 79.8266C25.0275 79.8539 25.4504 79.8948 25.8732 79.9494H25.8868C26.3779 80.004 26.8825 80.0722 27.3872 80.1676C27.4009 80.1676 27.4281 80.1676 27.4691 80.1676C27.8646 80.2222 28.2738 80.304 28.683 80.3995C28.8603 80.4268 29.0376 80.4677 29.215 80.5086C29.6651 80.6041 30.1288 80.7132 30.5789 80.836C31.0972 80.9587 31.6292 81.1088 32.1475 81.2725C32.1612 81.2725 32.1748 81.2725 32.2021 81.2861C32.7067 81.4361 33.2251 81.5998 33.7161 81.7771C34.6163 82.0772 35.5029 82.4046 36.3895 82.7592C36.5668 82.8274 36.7578 82.9092 36.9351 82.9774C37.4125 83.1684 37.8899 83.373 38.3673 83.5912C38.3945 83.5912 38.4218 83.6049 38.4491 83.6185C38.9265 83.8231 39.4039 84.0413 39.8813 84.2732C41.8727 85.2007 43.8095 86.2237 45.6236 87.2603C46.0874 87.5195 46.5239 87.7786 46.9603 88.0378C49.361 89.4427 51.516 90.8613 53.3301 92.1161C45.078 89.9883 30.8517 86.8921 17.3892 86.7011V68.6147C17.3892 67.8509 16.7754 67.2507 16.0253 67.2507C15.2751 67.2507 14.6613 67.8509 14.6613 68.6147V88.0514C14.6613 88.8016 15.2614 89.4154 16.0253 89.4154C35.7621 89.4154 57.7358 96.1262 59.4817 96.6582C59.4817 96.6582 59.4908 96.6627 59.509 96.6718C59.509 96.6718 59.5499 96.6854 59.5635 96.6854C59.5635 96.6991 59.5772 96.6991 59.5908 96.6991C59.6044 96.6991 59.6181 96.7127 59.6317 96.7127C59.6317 96.7127 59.6454 96.7127 59.659 96.7264H59.6863C59.6863 96.7264 59.7408 96.74 59.7681 96.74C59.85 96.7536 59.9182 96.7673 60 96.7673C60.0409 96.7673 60.0818 96.7673 60.1228 96.7536C60.1637 96.7536 60.2046 96.74 60.2319 96.74H60.2455C60.2455 96.74 60.3001 96.74 60.3137 96.7264C60.341 96.7264 60.3546 96.7127 60.3683 96.7127C60.3819 96.7127 60.3956 96.7127 60.4092 96.6991C60.4228 96.6991 60.4365 96.6854 60.4365 96.6854C60.4774 96.6718 60.5183 96.6582 60.5592 96.6309C60.5456 96.6582 60.5183 96.6718 60.491 96.6718C62.0732 96.1808 84.1561 89.4154 103.975 89.4154C104.739 89.4154 105.339 88.8016 105.339 88.0514V31.6781H111.272V47.6094C111.272 48.3596 111.886 48.9734 112.636 48.9734ZM58.636 92.5935C58.2814 92.3207 57.8995 92.0343 57.4766 91.7206C57.122 91.4614 56.7264 91.175 56.3172 90.8749C53.1392 88.5834 48.5289 85.5281 43.2776 82.882C42.882 82.6774 42.4865 82.4728 42.0773 82.2818C41.6817 82.0909 41.2862 81.8999 40.8633 81.7089C40.4678 81.518 40.045 81.3407 39.6358 81.1497C38.8174 80.7814 37.9717 80.4404 37.126 80.1131C36.7714 79.963 36.4031 79.8266 36.0349 79.7039C35.271 79.4174 34.5072 79.1583 33.7434 78.9128C33.3069 78.7764 32.8704 78.64 32.4339 78.5172C31.1654 78.1489 29.8833 77.8489 28.6148 77.6034C28.3011 77.5488 27.9874 77.4942 27.6737 77.4533C26.5006 77.2624 25.3412 77.126 24.1955 77.0714C24.4274 68.1782 24.3319 43.3947 24.2091 23.5761C24.1819 20.589 24.1682 18.2293 24.1682 16.8107C29.6923 17.2472 49.9338 19.5796 58.5815 31.3371C58.6224 31.378 58.6633 31.4326 58.6906 31.4735L58.636 92.5935ZM62.5234 91.7206C62.1005 92.0343 61.7186 92.3207 61.364 92.5935L61.3094 31.4735C61.3094 31.4735 61.3776 31.378 61.4185 31.3371C70.0662 19.5933 90.3077 17.2472 95.8318 16.8107C95.8318 18.2293 95.8181 20.589 95.7909 23.5761C95.6681 43.3811 95.5726 68.1646 95.8045 77.0714C94.6587 77.126 93.4994 77.2624 92.3263 77.4533C92.0126 77.4942 91.6989 77.5488 91.3852 77.6034C90.1167 77.8489 88.8345 78.1489 87.566 78.5172C87.1296 78.64 86.6931 78.7764 86.2566 78.9128C85.4928 79.1583 84.729 79.4174 83.9651 79.7039C83.5969 79.8266 83.2286 79.963 82.874 80.1131C82.0283 80.4404 81.1826 80.7814 80.3642 81.1497C79.955 81.3407 79.5322 81.518 79.1367 81.7089C78.7138 81.8999 78.3183 82.0909 77.9227 82.2818C77.5135 82.4728 77.118 82.6774 76.7224 82.882C71.4711 85.5281 66.8608 88.5834 63.6827 90.8749C63.2736 91.175 62.8916 91.4478 62.5234 91.7206ZM102.611 86.7147C89.1483 86.9057 74.922 90.0019 66.6699 92.1297C68.484 90.8749 70.6391 89.4564 73.0397 88.0514C73.4761 87.7923 73.9126 87.5331 74.3764 87.274C76.1905 86.2374 78.1273 85.2144 80.1187 84.2869C80.5961 84.055 81.0735 83.8367 81.5509 83.6321C81.5782 83.6185 81.6055 83.6049 81.6327 83.6049C82.1101 83.3866 82.5875 83.182 83.0649 82.9911C83.2422 82.9229 83.4332 82.841 83.6105 82.7728C84.4971 82.4182 85.3837 82.0909 86.2839 81.7908C86.7749 81.6135 87.2933 81.4498 87.7979 81.2997C87.8252 81.2861 87.8388 81.2861 87.8525 81.2861C88.3708 81.1224 88.9027 80.9724 89.4211 80.8496C89.8712 80.7269 90.3349 80.6178 90.785 80.5223C90.9624 80.4814 91.1397 80.4404 91.317 80.4132C91.7262 80.3177 92.1354 80.2358 92.5309 80.1813C92.5719 80.1813 92.5991 80.1813 92.6128 80.1813C93.1175 80.0858 93.6221 80.0176 94.1132 79.963H94.1268C94.5496 79.9085 94.9725 79.8676 95.3817 79.8403C95.6545 79.8266 95.9136 79.7994 96.1864 79.7994C96.5274 79.7857 96.8684 79.7721 97.2094 79.7721C97.5777 79.7721 97.9459 79.622 98.1915 79.3493C98.4506 79.0901 98.587 78.7218 98.5734 78.3535C98.3142 71.6155 98.3688 48.7824 98.4915 28.9092C98.4915 27.5316 98.4915 26.1813 98.5188 24.8446C100.237 24.6809 101.656 24.5991 102.611 24.5445V86.7284V86.7147Z" fill="white" fill-opacity="0.2"/><path d="M60.559 96.6445C60.559 96.6445 60.5181 96.6854 60.4908 96.6854C60.4908 96.6991 60.4636 96.6991 60.4363 96.6991C60.4772 96.6855 60.5181 96.6718 60.559 96.6445Z" fill="white" fill-opacity="0.2"/><path d="M50.6976 40.4622C50.3975 40.4622 50.0974 40.3667 49.8383 40.1621C45.2417 36.4384 35.3392 33.6286 35.2437 33.6014C34.5208 33.3968 34.0979 32.6466 34.3025 31.9237C34.5071 31.2008 35.2573 30.7779 35.9802 30.9825C36.4031 31.1053 46.5238 33.9696 51.5569 38.0479C52.1434 38.5253 52.2389 39.3846 51.7615 39.9712C51.4887 40.2985 51.0931 40.4758 50.6976 40.4758V40.4622Z" fill="white" fill-opacity="0.2"/><path d="M50.6976 48.9734C50.3975 48.9734 50.0974 48.8779 49.8383 48.6733C45.2417 44.9497 35.3392 42.1399 35.2437 42.1126C34.5208 41.908 34.0979 41.1578 34.3025 40.4349C34.5071 39.712 35.2573 39.2892 35.9802 39.4938C36.4031 39.6165 46.5238 42.4809 51.5569 46.5592C52.1434 47.0366 52.2389 47.8959 51.7615 48.4824C51.4887 48.8097 51.0931 48.9871 50.6976 48.9871V48.9734Z" fill="white" fill-opacity="0.2"/><path d="M69.275 40.4622C68.8794 40.4622 68.4839 40.2848 68.2111 39.9575C67.7337 39.371 67.8291 38.5117 68.4157 38.0343C73.4488 33.956 83.5695 31.0916 83.9923 30.9689C84.7152 30.7643 85.4654 31.1871 85.67 31.91C85.8746 32.6329 85.4518 33.3831 84.7289 33.5877C84.6334 33.615 74.7309 36.4248 70.1343 40.1484C69.8751 40.353 69.575 40.4485 69.275 40.4485V40.4622Z" fill="white" fill-opacity="0.2"/><path d="M69.275 48.9734C68.8794 48.9734 68.4839 48.7961 68.2111 48.4687C67.7337 47.8822 67.8291 47.0229 68.4157 46.5455C73.4488 42.4672 83.5695 39.6028 83.9923 39.4801C84.7152 39.2755 85.4654 39.6983 85.67 40.4212C85.8746 41.1441 85.4518 41.8943 84.7289 42.0989C84.6334 42.1262 74.7309 44.936 70.1343 48.6597C69.8751 48.8643 69.575 48.9597 69.275 48.9597V48.9734Z" fill="white" fill-opacity="0.2"/><path d="M85.1925 48.2369C84.8515 47.9777 84.4014 47.8822 83.9922 48.005C83.5694 48.1277 73.4486 50.9921 68.4156 55.0704C68.0882 55.3296 67.9109 55.7115 67.9109 56.1207V64.6455C67.9109 65.1639 68.211 65.6412 68.6884 65.8731C68.8793 65.955 69.0703 66.0095 69.2749 66.0095C69.5749 66.0095 69.8887 65.9004 70.1342 65.6958C74.7308 61.9858 84.6333 59.176 84.7288 59.1487C85.3153 58.985 85.7245 58.4394 85.7245 57.8256V49.3144C85.7245 48.8916 85.5335 48.4824 85.1925 48.2369ZM82.9965 56.8163C80.6914 57.5256 74.9081 59.4351 70.6389 62.0403V56.8027C74.1579 54.1974 80.0776 52.0969 82.9965 51.1558V56.8163Z" fill="white" fill-opacity="0.2"/><path d="M50.6976 57.4846C50.3975 57.4846 50.0974 57.3892 49.8383 57.1846C45.2417 53.4609 35.3392 50.6511 35.2437 50.6238C34.5208 50.4192 34.0979 49.669 34.3025 48.9461C34.5071 48.2232 35.2573 47.8004 35.9802 48.005C36.4031 48.1277 46.5238 50.9921 51.5569 55.0704C52.1434 55.5478 52.2389 56.4071 51.7615 56.9936C51.4887 57.321 51.0931 57.4983 50.6976 57.4983V57.4846Z" fill="white" fill-opacity="0.2"/><path d="M50.6976 66.0095C50.3975 66.0095 50.0974 65.914 49.8383 65.7094C45.2417 61.9858 35.3392 59.176 35.2437 59.1487C34.5208 58.9441 34.0979 58.1939 34.3025 57.471C34.5071 56.7481 35.2573 56.3253 35.9802 56.5299C36.4031 56.6526 46.5238 59.517 51.5569 63.5953C52.1434 64.0727 52.2389 64.932 51.7615 65.5185C51.4887 65.8458 51.0931 66.0232 50.6976 66.0232V66.0095Z" fill="white" fill-opacity="0.2"/><path d="M50.6976 74.5208C50.3975 74.5208 50.0974 74.4253 49.8383 74.2207C45.2417 70.497 35.3392 67.6872 35.2437 67.6599C34.5208 67.4553 34.0979 66.7051 34.3025 65.9822C34.5071 65.2593 35.2573 64.8365 35.9802 65.0411C36.4031 65.1638 46.5238 68.0282 51.5569 72.1065C52.1434 72.5839 52.2389 73.4432 51.7615 74.0297C51.4887 74.3571 51.0931 74.5344 50.6976 74.5344V74.5208Z" fill="white" fill-opacity="0.2"/><path d="M69.3297 74.5207C68.9341 74.5207 68.5386 74.3434 68.2658 74.016C67.7884 73.4295 67.8838 72.5702 68.4703 72.0928C73.5034 68.0145 83.6242 65.1502 84.047 65.0274C84.7699 64.8228 85.5201 65.2457 85.7247 65.9686C85.9293 66.6915 85.5065 67.4417 84.7836 67.6463C84.6881 67.6735 74.7856 70.4833 70.189 74.207C69.9298 74.4116 69.6297 74.5071 69.3297 74.5071V74.5207Z" fill="white" fill-opacity="0.2"/></svg>