<svg width="120" height="125" viewBox="0 0 120 125" fill="none" xmlns="http://www.w3.org/2000/svg"><path d="M40.5393 87.7789C40.5393 88.4156 40.1044 88.9595 39.4586 89.0789C39.3795 89.0789 39.2872 89.1054 39.2081 89.1054C38.6809 89.1054 38.2064 88.8003 38.0087 88.3095C37.9692 88.2299 37.9296 88.1371 37.9165 88.031C37.8506 87.6728 37.7847 87.3147 37.7319 86.9698C37.7583 86.9565 37.7847 86.9433 37.811 86.93C37.9165 86.8769 38.0219 86.8371 38.1273 86.7973C38.246 86.7443 38.3778 86.7045 38.4964 86.678C38.7205 86.5984 38.9577 86.5453 39.1949 86.5188C39.3004 86.4922 39.419 86.479 39.5245 86.479C39.6826 86.4657 39.8276 86.4525 39.9858 86.4525H40.3285C40.3812 86.8106 40.4471 87.1688 40.513 87.5269C40.513 87.6198 40.5393 87.6993 40.5393 87.7789Z" fill="white" fill-opacity="0.2"/><path d="M117.196 37.6382L60.5206 14.1064C60.1911 13.9605 59.8352 13.9605 59.5057 14.1064L2.81718 37.6382C2.32951 37.8371 2 38.3279 2 38.8585C2 39.3891 2.32951 39.8799 2.81718 40.0789L25.1446 49.351L22.4559 86.7445C22.4163 87.2486 22.6667 87.7394 23.1149 87.9914C23.2994 88.1108 27.8202 90.6842 34.7136 93.2973V91.7586C34.7136 91.3342 34.7663 90.9097 34.8585 90.5117C30.1004 88.6679 26.5813 86.8639 25.1446 86.0813L27.7016 50.4122L39.1553 55.161C35.8734 63.4382 35.3858 74.0899 37.7318 86.97C37.7582 86.9568 37.7846 86.9435 37.8109 86.9302C37.9164 86.8772 38.0218 86.8374 38.1273 86.7976C38.2459 86.7445 38.3777 86.7047 38.4963 86.6782C38.7204 86.5986 38.9576 86.5455 39.1949 86.519C39.3003 86.4925 39.4189 86.4792 39.5244 86.4792C39.6825 86.466 39.8275 86.4527 39.9857 86.4527H40.3284C38.0745 74.1032 38.5095 63.9688 41.5937 56.1824L59.5057 63.6107C59.8352 63.7566 60.1911 63.7566 60.5206 63.6107L92.3247 50.4122L94.8817 86.0813C91.4153 87.9516 75.9284 95.7513 60.0066 95.7513C55.8152 95.7513 51.3471 95.2207 46.6945 94.1596V95.433C46.6945 95.9105 46.6286 96.388 46.5099 96.8258C51.2153 97.8737 55.7493 98.4043 60.0066 98.4043C78.7226 98.4043 96.1866 88.4159 96.9115 87.9914C97.3596 87.7394 97.61 87.2486 97.5705 86.7445L94.8817 49.3377L117.196 40.0789C117.684 39.8799 118 39.3891 118 38.8585C118 38.3279 117.684 37.8371 117.196 37.6382ZM60.0066 60.9577L42.6613 53.7682C43.3862 52.3091 44.2166 50.9693 45.1392 49.7092C48.3025 45.4511 52.1643 43.0635 55.2353 41.7503C58.3063 40.437 60.5997 40.1718 60.6524 40.1718C61.3773 40.1054 61.9046 39.4555 61.8387 38.7259C61.7728 37.9963 61.1401 37.4657 60.402 37.5321C59.9802 37.5718 50.1082 38.6065 43.0699 48.0776C41.9891 49.5234 41.0401 51.0754 40.2229 52.7468L27.1217 47.3082C27.1217 47.3082 27.069 47.2817 27.0294 47.2684L6.78446 38.8585L60.0066 16.7593L113.229 38.8585L60.0066 60.9577Z" fill="white" fill-opacity="0.2"/><path d="M41.4225 86.4525H39.9858C39.8277 86.4525 39.6827 86.4657 39.5245 86.479C39.4191 86.479 39.3005 86.4922 39.195 86.5188C38.9578 86.5453 38.7205 86.5984 38.4965 86.678C38.3778 86.7045 38.246 86.7443 38.1274 86.7973C38.022 86.8371 37.9165 86.8769 37.8111 86.93C37.7847 86.93 37.7584 86.9565 37.732 86.9698C37.6266 87.0096 37.5211 87.0626 37.4289 87.129C36.9148 87.4075 36.4535 87.7789 36.0845 88.2167C35.979 88.3228 35.8868 88.4289 35.8077 88.5483C35.7154 88.6544 35.6363 88.7738 35.5572 88.9064C35.4518 89.0524 35.3595 89.2115 35.2936 89.3707C35.2409 89.437 35.2146 89.5034 35.1882 89.583C35.1091 89.7421 35.0432 89.9146 34.9905 90.087C34.951 90.2197 34.9114 90.3656 34.8719 90.5115H34.8587C34.7664 90.9094 34.7137 91.3339 34.7137 91.7584V95.4327C34.7137 96.8255 35.2673 98.152 36.2294 99.1204C35.755 100.964 32.3281 113.446 24.6967 119.522C24.3276 119.813 24.1431 120.291 24.2222 120.769C24.4594 122.294 25.2502 123.488 26.4892 124.191C27.5173 124.788 28.7562 125 30.0083 125C32.9344 125 35.9263 123.859 36.3876 123.674C36.638 123.567 36.8621 123.395 37.0071 123.169C37.3761 122.612 45.627 109.745 44.1245 99.9826C45.2975 99.2795 46.1542 98.152 46.5101 96.8255C46.6287 96.3878 46.6946 95.9103 46.6946 95.4327V91.7584C46.6946 88.8269 44.3353 86.4525 41.4225 86.4525ZM37.3498 91.7584C37.3498 90.2993 38.536 89.1054 39.9858 89.1054H41.4225C42.8855 89.1054 44.0586 90.2993 44.0586 91.7584V95.4327C44.0586 96.5868 43.3336 97.5949 42.2133 97.9531C41.9629 98.0459 41.7125 98.0857 41.4225 98.0857H39.9858C39.7881 98.0857 39.5904 98.0592 39.4059 98.0194C39.3005 97.9928 39.2082 97.9663 39.1159 97.9265C39.0237 97.9 38.9314 97.8469 38.8391 97.8071C37.9297 97.3694 37.3498 96.4409 37.3498 95.4327V91.7584ZM35.03 121.352C33.3693 121.936 29.5866 122.931 27.794 121.896C27.4382 121.684 27.1877 121.405 27.0164 121.034C34.2129 114.813 37.6397 103.962 38.5755 100.54C38.6019 100.54 38.6151 100.553 38.6414 100.553H38.6546C38.6546 100.553 38.681 100.566 38.6942 100.566C38.826 100.606 38.9446 100.633 39.0764 100.646H39.0896C39.0896 100.646 39.1423 100.659 39.1687 100.659C39.2741 100.686 39.3927 100.699 39.5113 100.699C39.6695 100.725 39.8277 100.739 39.9858 100.739H41.5675C42.556 108.618 36.3085 119.256 35.03 121.352Z" fill="white" fill-opacity="0.2"/></svg>